# xmcd
#
# Track frame offsets:
# 150
# 18697
# 36192
# 56466
# 74030
# 90570
# 106560
# 120997
# 137203
#
# Disc length: 2040 seconds
#
#
# Revision: 1
# Processed by: cddbd v1.5.2PL0 Copyright (c) Steve Scherf et al.
# Submitted via: FreeRIP 2.945 
#
DISCID=7507f609
DTITLE=Bobby Bland - Members Only
DYEAR=1900
DGENRE=Blues
TTITLE0=Members Only
TTITLE1=In The Ghetto
TTITLE2=I've Just For To Know
TTITLE3=Straight From The Shoulder
TTITLE4=Sweet Woman's Love
TTITLE5=Can We Make Love Tonight
TTITLE6=Sweet Surrender
TTITLE7=I Need Your Love So Bad
TTITLE8=Heart Open Up Again
EXTD=
EXTT0=
EXTT1=
EXTT2=
EXTT3=
EXTT4=
EXTT5=
EXTT6=
EXTT7=
EXTT8=
PLAYORDER=
